STARTFONT 2.1
FONT -Adobe-ITC Souvenir-Light-I-Normal--8-80-75-75-P-49-ISO8859-1
SIZE 8 75 75
FONTBOUNDINGBOX 15 11 -2 -2

STARTPROPERTIES 25
FONTNAME_REGISTRY ""
FAMILY_NAME "ITC Souvenir"
FOUNDRY "Adobe"
WEIGHT_NAME "Light"
SLANT "I"
SETWIDTH_NAME "Normal"
ADD_STYLE_NAME ""
PIXEL_SIZE 8
POINT_SIZE 80
RESOLUTION_X 75
RESOLUTION_Y 75
SPACING "P"
AVERAGE_WIDTH 49
CHARSET_REGISTRY "ISO8859"
CHARSET_ENCODING "1"
CHARSET_COLLECTIONS "ASCII ISO8859-1 ADOBE-STANDARD"
FULL_NAME "ITC Souvenir Light Italic"
COPYRIGHT "Copyright (c) 1985,1987 Adobe Systems, Inc., Portions Copyright 1988 Digital Equipment Corp."
CAP_HEIGHT 6
X_HEIGHT 4
WEIGHT 10
QUAD_WIDTH 5
DEFAULT_CHAR 32
FONT_DESCENT 2
FONT_ASCENT 8
ENDPROPERTIES

CHARS 190

STARTCHAR space
ENCODING 32
SWIDTH 300 0
DWIDTH 2 0
BBX 1 1 0 0
BITMAP
00
ENDCHAR

STARTCHAR exclam
ENCODING 33
SWIDTH 300 0
DWIDTH 3 0
BBX 2 6 1 0
BITMAP
40
40
80
80
00
80
ENDCHAR

STARTCHAR quotedbl
ENCODING 34
SWIDTH 360 0
DWIDTH 3 0
BBX 3 2 1 4
BITMAP
A0
A0
ENDCHAR

STARTCHAR numbersign
ENCODING 35
SWIDTH 600 0
DWIDTH 5 0
BBX 6 6 0 0
BITMAP
28
FC
50
F8
A0
A0
ENDCHAR

STARTCHAR dollar
ENCODING 36
SWIDTH 600 0
DWIDTH 5 0
BBX 5 8 0 -1
BITMAP
10
38
48
20
10
90
E0
40
ENDCHAR

STARTCHAR percent
ENCODING 37
SWIDTH 900 0
DWIDTH 8 0
BBX 7 6 1 0
BITMAP
64
A8
B6
DA
2A
4C
ENDCHAR

STARTCHAR ampersand
ENCODING 38
SWIDTH 820 0
DWIDTH 7 0
BBX 7 6 0 0
BITMAP
38
28
70
92
9A
74
ENDCHAR

STARTCHAR quoteright
ENCODING 39
SWIDTH 300 0
DWIDTH 2 0
BBX 2 2 1 4
BITMAP
40
80
ENDCHAR

STARTCHAR parenleft
ENCODING 40
SWIDTH 260 0
DWIDTH 2 0
BBX 3 8 0 -2
BITMAP
20
40
40
80
80
80
80
40
ENDCHAR

STARTCHAR parenright
ENCODING 41
SWIDTH 260 0
DWIDTH 3 0
BBX 3 8 0 -2
BITMAP
40
20
20
20
20
40
40
80
ENDCHAR

STARTCHAR asterisk
ENCODING 42
SWIDTH 540 0
DWIDTH 4 0
BBX 3 4 1 3
BITMAP
40
E0
40
A0
ENDCHAR

STARTCHAR plus
ENCODING 43
SWIDTH 660 0
DWIDTH 5 0
BBX 5 5 0 0
BITMAP
20
20
F8
20
20
ENDCHAR

STARTCHAR comma
ENCODING 44
SWIDTH 300 0
DWIDTH 2 0
BBX 2 3 0 -1
BITMAP
40
40
80
ENDCHAR

STARTCHAR minus
ENCODING 45
SWIDTH 660 0
DWIDTH 5 0
BBX 4 1 1 2
BITMAP
F0
ENDCHAR

STARTCHAR period
ENCODING 46
SWIDTH 300 0
DWIDTH 2 0
BBX 1 1 0 0
BITMAP
80
ENDCHAR

STARTCHAR slash
ENCODING 47
SWIDTH 220 0
DWIDTH 2 0
BBX 3 7 0 -1
BITMAP
20
20
40
40
80
80
80
ENDCHAR

STARTCHAR zero
ENCODING 48
SWIDTH 600 0
DWIDTH 5 0
BBX 4 6 1 0
BITMAP
70
50
90
90
A0
60
ENDCHAR

STARTCHAR one
ENCODING 49
SWIDTH 600 0
DWIDTH 5 0
BBX 3 6 1 0
BITMAP
60
20
20
40
40
E0
ENDCHAR

STARTCHAR two
ENCODING 50
SWIDTH 600 0
DWIDTH 5 0
BBX 4 6 1 0
BITMAP
70
90
20
40
80
E0
ENDCHAR

STARTCHAR three
ENCODING 51
SWIDTH 600 0
DWIDTH 5 0
BBX 4 6 1 0
BITMAP
70
10
60
10
90
60
ENDCHAR

STARTCHAR four
ENCODING 52
SWIDTH 600 0
DWIDTH 5 0
BBX 5 6 1 0
BITMAP
30
50
90
F8
20
70
ENDCHAR

STARTCHAR five
ENCODING 53
SWIDTH 600 0
DWIDTH 5 0
BBX 4 6 1 0
BITMAP
70
40
60
10
90
E0
ENDCHAR

STARTCHAR six
ENCODING 54
SWIDTH 600 0
DWIDTH 5 0
BBX 4 6 1 0
BITMAP
30
40
E0
90
90
60
ENDCHAR

STARTCHAR seven
ENCODING 55
SWIDTH 600 0
DWIDTH 5 0
BBX 4 6 1 0
BITMAP
F0
10
20
40
80
80
ENDCHAR

STARTCHAR eight
ENCODING 56
SWIDTH 600 0
DWIDTH 5 0
BBX 4 6 1 0
BITMAP
70
50
60
90
90
60
ENDCHAR

STARTCHAR nine
ENCODING 57
SWIDTH 600 0
DWIDTH 5 0
BBX 4 6 1 0
BITMAP
60
90
90
70
20
C0
ENDCHAR

STARTCHAR colon
ENCODING 58
SWIDTH 300 0
DWIDTH 2 0
BBX 2 4 0 0
BITMAP
40
00
00
80
ENDCHAR

STARTCHAR semicolon
ENCODING 59
SWIDTH 300 0
DWIDTH 2 0
BBX 3 5 0 -1
BITMAP
20
00
40
40
80
ENDCHAR

STARTCHAR less
ENCODING 60
SWIDTH 660 0
DWIDTH 5 0
BBX 4 5 1 0
BITMAP
30
40
80
40
20
ENDCHAR

STARTCHAR equal
ENCODING 61
SWIDTH 660 0
DWIDTH 5 0
BBX 4 3 1 1
BITMAP
F0
00
F0
ENDCHAR

STARTCHAR greater
ENCODING 62
SWIDTH 660 0
DWIDTH 5 0
BBX 4 5 1 0
BITMAP
40
20
10
20
C0
ENDCHAR

STARTCHAR question
ENCODING 63
SWIDTH 420 0
DWIDTH 4 0
BBX 3 6 1 0
BITMAP
C0
20
20
40
00
80
ENDCHAR

STARTCHAR at
ENCODING 64
SWIDTH 820 0
DWIDTH 7 0
BBX 7 7 0 0
BITMAP
38
44
9A
AA
BE
40
38
ENDCHAR

STARTCHAR A
ENCODING 65
SWIDTH 740 0
DWIDTH 6 0
BBX 6 6 0 0
BITMAP
10
28
28
78
48
EC
ENDCHAR

STARTCHAR B
ENCODING 66
SWIDTH 680 0
DWIDTH 6 0
BBX 6 6 0 0
BITMAP
78
24
38
44
44
F8
ENDCHAR

STARTCHAR C
ENCODING 67
SWIDTH 720 0
DWIDTH 6 0
BBX 5 6 1 0
BITMAP
38
40
80
80
C8
70
ENDCHAR

STARTCHAR D
ENCODING 68
SWIDTH 760 0
DWIDTH 6 0
BBX 6 6 0 0
BITMAP
38
24
24
44
48
F0
ENDCHAR

STARTCHAR E
ENCODING 69
SWIDTH 660 0
DWIDTH 6 0
BBX 6 6 0 0
BITMAP
7C
20
38
40
48
F0
ENDCHAR

STARTCHAR F
ENCODING 70
SWIDTH 580 0
DWIDTH 5 0
BBX 6 6 0 0
BITMAP
7C
20
30
40
40
E0
ENDCHAR

STARTCHAR G
ENCODING 71
SWIDTH 760 0
DWIDTH 6 0
BBX 6 6 1 0
BITMAP
38
40
80
9C
C8
78
ENDCHAR

STARTCHAR H
ENCODING 72
SWIDTH 820 0
DWIDTH 6 0
BBX 7 6 0 0
BITMAP
66
24
3C
48
48
CC
ENDCHAR

STARTCHAR I
ENCODING 73
SWIDTH 300 0
DWIDTH 3 0
BBX 4 6 0 0
BITMAP
70
20
20
40
40
E0
ENDCHAR

STARTCHAR J
ENCODING 74
SWIDTH 500 0
DWIDTH 5 0
BBX 5 6 1 0
BITMAP
38
10
10
A0
A0
C0
ENDCHAR

STARTCHAR K
ENCODING 75
SWIDTH 700 0
DWIDTH 6 0
BBX 7 6 0 0
BITMAP
66
28
30
70
48
CC
ENDCHAR

STARTCHAR L
ENCODING 76
SWIDTH 640 0
DWIDTH 5 0
BBX 5 6 0 0
BITMAP
70
20
20
40
48
F0
ENDCHAR

STARTCHAR M
ENCODING 77
SWIDTH 880 0
DWIDTH 8 0
BBX 8 6 0 0
BITMAP
63
22
26
7A
52
C6
ENDCHAR

STARTCHAR N
ENCODING 78
SWIDTH 780 0
DWIDTH 6 0
BBX 7 6 0 0
BITMAP
62
32
2A
4C
44
E4
ENDCHAR

STARTCHAR O
ENCODING 79
SWIDTH 780 0
DWIDTH 6 0
BBX 5 6 1 0
BITMAP
30
58
88
88
D0
60
ENDCHAR

STARTCHAR P
ENCODING 80
SWIDTH 640 0
DWIDTH 6 0
BBX 6 6 1 0
BITMAP
78
24
28
70
40
E0
ENDCHAR

STARTCHAR Q
ENCODING 81
SWIDTH 780 0
DWIDTH 6 0
BBX 5 7 1 -1
BITMAP
30
58
88
A8
E8
70
10
ENDCHAR

STARTCHAR R
ENCODING 82
SWIDTH 700 0
DWIDTH 6 0
BBX 6 6 0 0
BITMAP
78
24
28
70
48
CC
ENDCHAR

STARTCHAR S
ENCODING 83
SWIDTH 620 0
DWIDTH 5 0
BBX 5 6 0 0
BITMAP
38
68
20
18
88
70
ENDCHAR

STARTCHAR T
ENCODING 84
SWIDTH 660 0
DWIDTH 6 0
BBX 6 6 1 0
BITMAP
7C
90
10
20
20
70
ENDCHAR

STARTCHAR U
ENCODING 85
SWIDTH 760 0
DWIDTH 6 0
BBX 7 6 1 0
BITMAP
EE
44
44
88
88
70
ENDCHAR

STARTCHAR V
ENCODING 86
SWIDTH 700 0
DWIDTH 6 0
BBX 7 6 0 0
BITMAP
EE
44
48
30
30
20
ENDCHAR

STARTCHAR W
ENCODING 87
SWIDTH 980 0
DWIDTH 8 0
BBX 9 6 0 0
BITMAP
DB80
4900
4A00
3E00
2400
2400
ENDCHAR

STARTCHAR X
ENCODING 88
SWIDTH 740 0
DWIDTH 7 0
BBX 7 6 0 0
BITMAP
66
24
18
28
44
EE
ENDCHAR

STARTCHAR Y
ENCODING 89
SWIDTH 740 0
DWIDTH 6 0
BBX 6 6 1 0
BITMAP
EC
48
30
20
20
70
ENDCHAR

STARTCHAR Z
ENCODING 90
SWIDTH 580 0
DWIDTH 6 0
BBX 6 6 0 0
BITMAP
7C
48
10
20
44
F8
ENDCHAR

STARTCHAR bracketleft
ENCODING 91
SWIDTH 220 0
DWIDTH 2 0
BBX 4 8 -1 -2
BITMAP
30
20
20
40
40
80
80
C0
ENDCHAR

STARTCHAR backslash
ENCODING 92
SWIDTH 600 0
DWIDTH 5 0
BBX 4 6 1 0
BITMAP
80
80
40
20
20
10
ENDCHAR

STARTCHAR bracketright
ENCODING 93
SWIDTH 220 0
DWIDTH 3 0
BBX 4 8 -1 -2
BITMAP
30
10
10
20
20
40
40
C0
ENDCHAR

STARTCHAR asciicircum
ENCODING 94
SWIDTH 660 0
DWIDTH 5 0
BBX 4 4 1 2
BITMAP
60
60
90
90
ENDCHAR

STARTCHAR underscore
ENCODING 95
SWIDTH 500 0
DWIDTH 4 0
BBX 4 1 0 -1
BITMAP
F0
ENDCHAR

STARTCHAR quoteleft
ENCODING 96
SWIDTH 300 0
DWIDTH 2 0
BBX 2 2 1 4
BITMAP
80
40
ENDCHAR

STARTCHAR a
ENCODING 97
SWIDTH 520 0
DWIDTH 5 0
BBX 4 4 0 0
BITMAP
70
90
A0
70
ENDCHAR

STARTCHAR b
ENCODING 98
SWIDTH 540 0
DWIDTH 5 0
BBX 5 6 0 0
BITMAP
60
20
30
48
50
A0
ENDCHAR

STARTCHAR c
ENCODING 99
SWIDTH 460 0
DWIDTH 4 0
BBX 4 4 0 0
BITMAP
60
90
80
60
ENDCHAR

STARTCHAR d
ENCODING 100
SWIDTH 580 0
DWIDTH 5 0
BBX 5 6 0 0
BITMAP
18
08
70
90
A0
70
ENDCHAR

STARTCHAR e
ENCODING 101
SWIDTH 500 0
DWIDTH 4 0
BBX 4 4 0 0
BITMAP
60
F0
80
60
ENDCHAR

STARTCHAR f
ENCODING 102
SWIDTH 360 0
DWIDTH 3 0
BBX 3 7 0 -1
BITMAP
20
40
E0
40
40
40
80
ENDCHAR

STARTCHAR g
ENCODING 103
SWIDTH 520 0
DWIDTH 5 0
BBX 5 6 0 -2
BITMAP
68
90
B0
60
90
60
ENDCHAR

STARTCHAR h
ENCODING 104
SWIDTH 580 0
DWIDTH 5 0
BBX 4 6 0 0
BITMAP
C0
40
60
D0
A0
B0
ENDCHAR

STARTCHAR i
ENCODING 105
SWIDTH 280 0
DWIDTH 2 0
BBX 2 6 0 0
BITMAP
40
00
C0
40
80
C0
ENDCHAR

STARTCHAR j
ENCODING 106
SWIDTH 260 0
DWIDTH 2 0
BBX 3 8 -2 -2
BITMAP
20
00
60
20
20
40
40
80
ENDCHAR

STARTCHAR k
ENCODING 107
SWIDTH 560 0
DWIDTH 5 0
BBX 4 6 0 0
BITMAP
C0
40
50
60
A0
B0
ENDCHAR

STARTCHAR l
ENCODING 108
SWIDTH 300 0
DWIDTH 2 0
BBX 2 6 0 0
BITMAP
C0
40
40
80
80
80
ENDCHAR

STARTCHAR m
ENCODING 109
SWIDTH 880 0
DWIDTH 7 0
BBX 6 4 0 0
BITMAP
A8
FC
A4
A8
ENDCHAR

STARTCHAR n
ENCODING 110
SWIDTH 600 0
DWIDTH 5 0
BBX 4 4 0 0
BITMAP
A0
D0
90
B0
ENDCHAR

STARTCHAR o
ENCODING 111
SWIDTH 560 0
DWIDTH 4 0
BBX 4 4 0 0
BITMAP
60
90
B0
60
ENDCHAR

STARTCHAR p
ENCODING 112
SWIDTH 580 0
DWIDTH 5 0
BBX 5 6 -1 -2
BITMAP
70
28
28
70
40
C0
ENDCHAR

STARTCHAR q
ENCODING 113
SWIDTH 560 0
DWIDTH 5 0
BBX 5 6 0 -2
BITMAP
68
D0
90
60
20
60
ENDCHAR

STARTCHAR r
ENCODING 114
SWIDTH 400 0
DWIDTH 3 0
BBX 3 4 0 0
BITMAP
A0
C0
80
80
ENDCHAR

STARTCHAR s
ENCODING 115
SWIDTH 420 0
DWIDTH 4 0
BBX 3 4 0 0
BITMAP
60
40
20
C0
ENDCHAR

STARTCHAR t
ENCODING 116
SWIDTH 360 0
DWIDTH 3 0
BBX 4 6 -1 0
BITMAP
20
20
F0
40
40
60
ENDCHAR

STARTCHAR u
ENCODING 117
SWIDTH 580 0
DWIDTH 5 0
BBX 4 4 0 0
BITMAP
D0
90
A0
70
ENDCHAR

STARTCHAR v
ENCODING 118
SWIDTH 480 0
DWIDTH 4 0
BBX 4 4 0 0
BITMAP
D0
90
60
40
ENDCHAR

STARTCHAR w
ENCODING 119
SWIDTH 720 0
DWIDTH 6 0
BBX 5 4 0 0
BITMAP
A8
A8
70
60
ENDCHAR

STARTCHAR x
ENCODING 120
SWIDTH 540 0
DWIDTH 4 0
BBX 4 4 -1 0
BITMAP
50
60
70
90
ENDCHAR

STARTCHAR y
ENCODING 121
SWIDTH 500 0
DWIDTH 5 0
BBX 4 5 0 -1
BITMAP
D0
50
60
20
C0
ENDCHAR

STARTCHAR z
ENCODING 122
SWIDTH 460 0
DWIDTH 5 0
BBX 4 4 0 0
BITMAP
70
A0
50
E0
ENDCHAR

STARTCHAR braceleft
ENCODING 123
SWIDTH 300 0
DWIDTH 3 0
BBX 3 8 1 -2
BITMAP
20
40
40
80
40
80
80
40
ENDCHAR

STARTCHAR bar
ENCODING 124
SWIDTH 660 0
DWIDTH 6 0
BBX 1 6 3 0
BITMAP
80
80
80
80
80
80
ENDCHAR

STARTCHAR braceright
ENCODING 125
SWIDTH 300 0
DWIDTH 3 0
BBX 3 8 0 -2
BITMAP
40
20
20
40
20
40
40
80
ENDCHAR

STARTCHAR asciitilde
ENCODING 126
SWIDTH 660 0
DWIDTH 5 0
BBX 5 2 0 2
BITMAP
68
B0
ENDCHAR

STARTCHAR exclamdown
ENCODING 161
SWIDTH 300 0
DWIDTH 2 0
BBX 3 6 0 -1
BITMAP
20
00
40
40
80
80
ENDCHAR

STARTCHAR cent
ENCODING 162
SWIDTH 600 0
DWIDTH 5 0
BBX 4 6 1 0
BITMAP
20
70
80
90
60
40
ENDCHAR

STARTCHAR sterling
ENCODING 163
SWIDTH 600 0
DWIDTH 5 0
BBX 5 6 0 0
BITMAP
38
48
20
70
40
F0
ENDCHAR

STARTCHAR currency
ENCODING 164
SWIDTH 740 0
DWIDTH 5 0
BBX 5 5 1 1
BITMAP
88
70
50
70
88
ENDCHAR

STARTCHAR yen
ENCODING 165
SWIDTH 800 0
DWIDTH 5 0
BBX 5 6 0 0
BITMAP
58
50
D8
20
F8
20
ENDCHAR

STARTCHAR brokenbar
ENCODING 166
SWIDTH 660 0
DWIDTH 6 0
BBX 1 6 3 0
BITMAP
80
80
00
80
80
80
ENDCHAR

STARTCHAR section
ENCODING 167
SWIDTH 560 0
DWIDTH 6 0
BBX 6 7 0 -1
BITMAP
18
24
70
48
38
90
60
ENDCHAR

STARTCHAR dieresis
ENCODING 168
SWIDTH 360 0
DWIDTH 3 0
BBX 3 1 1 5
BITMAP
A0
ENDCHAR

STARTCHAR copyright
ENCODING 169
SWIDTH 820 0
DWIDTH 7 0
BBX 6 7 1 0
BITMAP
38
44
B4
A4
B4
88
70
ENDCHAR

STARTCHAR ordfeminine
ENCODING 170
SWIDTH 400 0
DWIDTH 4 0
BBX 4 5 1 2
BITMAP
60
A0
F0
00
E0
ENDCHAR

STARTCHAR guillemotleft
ENCODING 171
SWIDTH 360 0
DWIDTH 4 0
BBX 4 3 0 1
BITMAP
50
A0
A0
ENDCHAR

STARTCHAR logicalnot
ENCODING 172
SWIDTH 660 0
DWIDTH 5 0
BBX 4 2 1 2
BITMAP
F0
10
ENDCHAR

STARTCHAR hyphen
ENCODING 173
SWIDTH 260 0
DWIDTH 3 0
BBX 3 1 0 2
BITMAP
E0
ENDCHAR

STARTCHAR registered
ENCODING 174
SWIDTH 820 0
DWIDTH 7 0
BBX 6 7 1 0
BITMAP
38
44
B4
B4
AC
88
70
ENDCHAR

STARTCHAR macron
ENCODING 175
SWIDTH 300 0
DWIDTH 2 0
BBX 3 1 0 5
BITMAP
E0
ENDCHAR

STARTCHAR degree
ENCODING 176
SWIDTH 400 0
DWIDTH 3 0
BBX 3 3 1 4
BITMAP
40
A0
40
ENDCHAR

STARTCHAR plusminus
ENCODING 177
SWIDTH 660 0
DWIDTH 5 0
BBX 5 5 1 0
BITMAP
20
F8
20
00
F8
ENDCHAR

STARTCHAR twosuperior
ENCODING 178
SWIDTH 360 0
DWIDTH 2 0
BBX 3 4 0 2
BITMAP
60
20
40
E0
ENDCHAR

STARTCHAR threesuperior
ENCODING 179
SWIDTH 360 0
DWIDTH 2 0
BBX 3 4 0 2
BITMAP
60
60
20
C0
ENDCHAR

STARTCHAR acute
ENCODING 180
SWIDTH 280 0
DWIDTH 2 0
BBX 2 2 1 5
BITMAP
40
80
ENDCHAR

STARTCHAR mu
ENCODING 181
SWIDTH 580 0
DWIDTH 5 0
BBX 4 5 0 -1
BITMAP
D0
90
A0
F0
80
ENDCHAR

STARTCHAR paragraph
ENCODING 182
SWIDTH 680 0
DWIDTH 6 0
BBX 6 7 1 -1
BITMAP
7C
A8
A8
D0
50
A0
A0
ENDCHAR

STARTCHAR periodcentered
ENCODING 183
SWIDTH 300 0
DWIDTH 2 0
BBX 1 1 1 2
BITMAP
80
ENDCHAR

STARTCHAR cedilla
ENCODING 184
SWIDTH 380 0
DWIDTH 3 0
BBX 2 2 0 -1
BITMAP
40
80
ENDCHAR

STARTCHAR onesuperior
ENCODING 185
SWIDTH 360 0
DWIDTH 2 0
BBX 3 4 0 2
BITMAP
C0
40
40
E0
ENDCHAR

STARTCHAR ordmasculine
ENCODING 186
SWIDTH 400 0
DWIDTH 4 0
BBX 3 5 1 2
BITMAP
E0
A0
E0
00
E0
ENDCHAR

STARTCHAR guillemotright
ENCODING 187
SWIDTH 360 0
DWIDTH 4 0
BBX 4 3 0 1
BITMAP
50
50
A0
ENDCHAR

STARTCHAR onequarter
ENCODING 188
SWIDTH 900 0
DWIDTH 7 0
BBX 7 6 0 0
BITMAP
C4
48
54
EC
3E
44
ENDCHAR

STARTCHAR onehalf
ENCODING 189
SWIDTH 900 0
DWIDTH 7 0
BBX 6 6 0 0
BITMAP
C4
48
5C
E4
28
5C
ENDCHAR

STARTCHAR threequarters
ENCODING 190
SWIDTH 900 0
DWIDTH 7 0
BBX 7 6 0 0
BITMAP
64
68
34
EC
3E
44
ENDCHAR

STARTCHAR questiondown
ENCODING 191
SWIDTH 420 0
DWIDTH 4 0
BBX 3 6 0 -1
BITMAP
20
00
20
40
80
60
ENDCHAR

STARTCHAR Agrave
ENCODING 192
SWIDTH 740 0
DWIDTH 6 0
BBX 6 9 0 0
BITMAP
20
10
00
10
28
28
78
48
EC
ENDCHAR

STARTCHAR Aacute
ENCODING 193
SWIDTH 740 0
DWIDTH 6 0
BBX 6 9 0 0
BITMAP
08
10
00
10
28
28
78
48
EC
ENDCHAR

STARTCHAR Acircumflex
ENCODING 194
SWIDTH 740 0
DWIDTH 6 0
BBX 6 9 0 0
BITMAP
18
28
00
10
28
28
78
48
EC
ENDCHAR

STARTCHAR Atilde
ENCODING 195
SWIDTH 740 0
DWIDTH 6 0
BBX 6 9 0 0
BITMAP
14
28
00
10
28
28
78
48
EC
ENDCHAR

STARTCHAR Adieresis
ENCODING 196
SWIDTH 740 0
DWIDTH 6 0
BBX 6 8 0 0
BITMAP
28
00
10
28
28
78
48
EC
ENDCHAR

STARTCHAR Aring
ENCODING 197
SWIDTH 740 0
DWIDTH 6 0
BBX 6 9 0 0
BITMAP
10
28
10
10
28
28
78
48
EC
ENDCHAR

STARTCHAR AE
ENCODING 198
SWIDTH 960 0
DWIDTH 8 0
BBX 9 6 -1 0
BITMAP
1F80
1400
2600
7800
4900
EE00
ENDCHAR

STARTCHAR Ccedilla
ENCODING 199
SWIDTH 720 0
DWIDTH 6 0
BBX 5 8 1 -2
BITMAP
38
40
80
80
88
70
20
40
ENDCHAR

STARTCHAR Egrave
ENCODING 200
SWIDTH 660 0
DWIDTH 6 0
BBX 6 9 0 0
BITMAP
10
08
00
7C
20
38
40
48
F0
ENDCHAR

STARTCHAR Eacute
ENCODING 201
SWIDTH 660 0
DWIDTH 6 0
BBX 6 9 0 0
BITMAP
08
10
00
7C
20
38
40
48
F0
ENDCHAR

STARTCHAR Ecircumflex
ENCODING 202
SWIDTH 660 0
DWIDTH 6 0
BBX 6 9 0 0
BITMAP
18
28
00
7C
20
38
40
48
F0
ENDCHAR

STARTCHAR Edieresis
ENCODING 203
SWIDTH 660 0
DWIDTH 6 0
BBX 6 8 0 0
BITMAP
28
00
7C
20
38
40
48
F0
ENDCHAR

STARTCHAR Igrave
ENCODING 204
SWIDTH 300 0
DWIDTH 3 0
BBX 4 9 0 0
BITMAP
40
20
00
70
20
20
40
40
E0
ENDCHAR

STARTCHAR Iacute
ENCODING 205
SWIDTH 300 0
DWIDTH 3 0
BBX 4 9 0 0
BITMAP
10
20
00
70
20
20
40
40
E0
ENDCHAR

STARTCHAR Icircumflex
ENCODING 206
SWIDTH 300 0
DWIDTH 3 0
BBX 4 9 0 0
BITMAP
30
50
00
70
20
20
40
40
E0
ENDCHAR

STARTCHAR Idieresis
ENCODING 207
SWIDTH 300 0
DWIDTH 3 0
BBX 4 8 0 0
BITMAP
50
00
70
20
20
40
40
E0
ENDCHAR

STARTCHAR Eth
ENCODING 208
SWIDTH 760 0
DWIDTH 6 0
BBX 6 6 0 0
BITMAP
38
24
74
44
48
F0
ENDCHAR

STARTCHAR Ntilde
ENCODING 209
SWIDTH 780 0
DWIDTH 6 0
BBX 7 9 0 0
BITMAP
0A
14
00
62
32
2A
4C
44
E4
ENDCHAR

STARTCHAR Ograve
ENCODING 210
SWIDTH 780 0
DWIDTH 6 0
BBX 5 9 1 0
BITMAP
20
10
00
30
58
88
88
D0
60
ENDCHAR

STARTCHAR Oacute
ENCODING 211
SWIDTH 780 0
DWIDTH 6 0
BBX 5 9 1 0
BITMAP
08
10
00
30
58
88
88
D0
60
ENDCHAR

STARTCHAR Ocircumflex
ENCODING 212
SWIDTH 780 0
DWIDTH 6 0
BBX 5 9 1 0
BITMAP
18
28
00
30
58
88
88
D0
60
ENDCHAR

STARTCHAR Otilde
ENCODING 213
SWIDTH 780 0
DWIDTH 6 0
BBX 5 9 1 0
BITMAP
28
50
00
30
58
88
88
D0
60
ENDCHAR

STARTCHAR Odieresis
ENCODING 214
SWIDTH 780 0
DWIDTH 6 0
BBX 5 8 1 0
BITMAP
28
00
30
58
88
88
D0
60
ENDCHAR

STARTCHAR multiply
ENCODING 215
SWIDTH 660 0
DWIDTH 5 0
BBX 4 4 1 1
BITMAP
90
60
60
90
ENDCHAR

STARTCHAR Oslash
ENCODING 216
SWIDTH 780 0
DWIDTH 6 0
BBX 7 8 0 -1
BITMAP
02
1C
2C
54
54
68
70
80
ENDCHAR

STARTCHAR Ugrave
ENCODING 217
SWIDTH 760 0
DWIDTH 6 0
BBX 7 9 1 0
BITMAP
20
10
00
EE
44
44
88
88
70
ENDCHAR

STARTCHAR Uacute
ENCODING 218
SWIDTH 760 0
DWIDTH 6 0
BBX 7 9 1 0
BITMAP
08
10
00
EE
44
44
88
88
70
ENDCHAR

STARTCHAR Ucircumflex
ENCODING 219
SWIDTH 760 0
DWIDTH 6 0
BBX 7 9 1 0
BITMAP
18
28
00
EE
44
44
88
88
70
ENDCHAR

STARTCHAR Udieresis
ENCODING 220
SWIDTH 760 0
DWIDTH 6 0
BBX 7 8 1 0
BITMAP
28
00
EE
44
44
88
88
70
ENDCHAR

STARTCHAR Yacute
ENCODING 221
SWIDTH 740 0
DWIDTH 6 0
BBX 6 9 1 0
BITMAP
08
10
00
EC
48
30
20
20
70
ENDCHAR

STARTCHAR Thorn
ENCODING 222
SWIDTH 640 0
DWIDTH 6 0
BBX 6 6 0 0
BITMAP
60
38
24
78
40
E0
ENDCHAR

STARTCHAR germandbls
ENCODING 223
SWIDTH 540 0
DWIDTH 5 0
BBX 5 6 0 0
BITMAP
38
28
30
48
48
D0
ENDCHAR

STARTCHAR agrave
ENCODING 224
SWIDTH 520 0
DWIDTH 5 0
BBX 4 7 0 0
BITMAP
40
20
00
70
90
A0
70
ENDCHAR

STARTCHAR aacute
ENCODING 225
SWIDTH 520 0
DWIDTH 5 0
BBX 4 7 0 0
BITMAP
10
20
00
70
90
A0
70
ENDCHAR

STARTCHAR acircumflex
ENCODING 226
SWIDTH 520 0
DWIDTH 5 0
BBX 4 7 0 0
BITMAP
30
50
00
70
90
A0
70
ENDCHAR

STARTCHAR atilde
ENCODING 227
SWIDTH 520 0
DWIDTH 5 0
BBX 5 7 0 0
BITMAP
28
50
00
70
90
A0
70
ENDCHAR

STARTCHAR adieresis
ENCODING 228
SWIDTH 520 0
DWIDTH 5 0
BBX 4 6 0 0
BITMAP
50
00
70
90
A0
70
ENDCHAR

STARTCHAR aring
ENCODING 229
SWIDTH 520 0
DWIDTH 5 0
BBX 4 7 0 0
BITMAP
20
50
20
70
90
A0
70
ENDCHAR

STARTCHAR ae
ENCODING 230
SWIDTH 820 0
DWIDTH 7 0
BBX 7 4 -1 0
BITMAP
66
7E
98
6E
ENDCHAR

STARTCHAR ccedilla
ENCODING 231
SWIDTH 460 0
DWIDTH 4 0
BBX 4 6 0 -2
BITMAP
60
90
80
60
40
80
ENDCHAR

STARTCHAR egrave
ENCODING 232
SWIDTH 500 0
DWIDTH 4 0
BBX 4 7 0 0
BITMAP
40
20
00
60
F0
80
60
ENDCHAR

STARTCHAR eacute
ENCODING 233
SWIDTH 500 0
DWIDTH 4 0
BBX 4 7 0 0
BITMAP
10
20
00
60
F0
80
60
ENDCHAR

STARTCHAR ecircumflex
ENCODING 234
SWIDTH 500 0
DWIDTH 4 0
BBX 4 7 0 0
BITMAP
30
50
00
60
F0
80
60
ENDCHAR

STARTCHAR edieresis
ENCODING 235
SWIDTH 500 0
DWIDTH 4 0
BBX 4 6 0 0
BITMAP
50
00
60
F0
80
60
ENDCHAR

STARTCHAR igrave
ENCODING 236
SWIDTH 280 0
DWIDTH 2 0
BBX 2 7 0 0
BITMAP
80
40
00
C0
40
80
C0
ENDCHAR

STARTCHAR iacute
ENCODING 237
SWIDTH 280 0
DWIDTH 2 0
BBX 3 7 0 0
BITMAP
20
40
00
C0
40
80
C0
ENDCHAR

STARTCHAR icircumflex
ENCODING 238
SWIDTH 280 0
DWIDTH 2 0
BBX 3 7 0 0
BITMAP
60
A0
00
C0
40
80
C0
ENDCHAR

STARTCHAR idieresis
ENCODING 239
SWIDTH 280 0
DWIDTH 2 0
BBX 3 6 0 0
BITMAP
A0
00
C0
40
80
C0
ENDCHAR

STARTCHAR eth
ENCODING 240
SWIDTH 560 0
DWIDTH 4 0
BBX 4 7 -1 0
BITMAP
90
60
A0
70
90
90
60
ENDCHAR

STARTCHAR ntilde
ENCODING 241
SWIDTH 600 0
DWIDTH 5 0
BBX 4 7 0 0
BITMAP
50
A0
00
A0
D0
90
B0
ENDCHAR

STARTCHAR ograve
ENCODING 242
SWIDTH 560 0
DWIDTH 4 0
BBX 4 7 0 0
BITMAP
40
20
00
60
90
B0
60
ENDCHAR

STARTCHAR oacute
ENCODING 243
SWIDTH 560 0
DWIDTH 4 0
BBX 4 7 0 0
BITMAP
10
20
00
60
90
B0
60
ENDCHAR

STARTCHAR ocircumflex
ENCODING 244
SWIDTH 560 0
DWIDTH 4 0
BBX 4 7 0 0
BITMAP
30
50
00
60
90
B0
60
ENDCHAR

STARTCHAR otilde
ENCODING 245
SWIDTH 560 0
DWIDTH 4 0
BBX 5 7 0 0
BITMAP
28
50
00
60
90
B0
60
ENDCHAR

STARTCHAR odieresis
ENCODING 246
SWIDTH 560 0
DWIDTH 4 0
BBX 4 6 0 0
BITMAP
50
00
60
90
B0
60
ENDCHAR

STARTCHAR divide
ENCODING 247
SWIDTH 660 0
DWIDTH 5 0
BBX 5 5 0 0
BITMAP
20
00
F8
00
20
ENDCHAR

STARTCHAR oslash
ENCODING 248
SWIDTH 560 0
DWIDTH 4 0
BBX 4 4 0 0
BITMAP
70
B0
D0
E0
ENDCHAR

STARTCHAR ugrave
ENCODING 249
SWIDTH 580 0
DWIDTH 5 0
BBX 4 7 0 0
BITMAP
40
20
00
D0
90
A0
70
ENDCHAR

STARTCHAR uacute
ENCODING 250
SWIDTH 580 0
DWIDTH 5 0
BBX 4 7 0 0
BITMAP
10
20
00
D0
90
A0
70
ENDCHAR

STARTCHAR ucircumflex
ENCODING 251
SWIDTH 580 0
DWIDTH 5 0
BBX 4 7 0 0
BITMAP
30
50
00
D0
90
A0
70
ENDCHAR

STARTCHAR udieresis
ENCODING 252
SWIDTH 580 0
DWIDTH 5 0
BBX 4 6 0 0
BITMAP
50
00
D0
90
A0
70
ENDCHAR

STARTCHAR yacute
ENCODING 253
SWIDTH 500 0
DWIDTH 5 0
BBX 4 8 0 -1
BITMAP
10
20
00
D0
50
60
20
C0
ENDCHAR

STARTCHAR thorn
ENCODING 254
SWIDTH 580 0
DWIDTH 5 0
BBX 4 8 0 -2
BITMAP
C0
40
60
50
90
E0
80
80
ENDCHAR

STARTCHAR ydieresis
ENCODING 255
SWIDTH 500 0
DWIDTH 5 0
BBX 4 7 0 -1
BITMAP
50
00
D0
50
60
20
C0
ENDCHAR
ENDFONT
